<?xml version="1.0" encoding="UTF-8"?>
<svg id="Layer_1" data-name="Layer 1" xmlns="http://www.w3.org/2000/svg" viewBox="0 0 1080 1080">
  <defs>
    <style>
      .cls-1 {
        fill: #15213f;
      }

      .cls-1, .cls-2, .cls-3 {
        stroke-width: 0px;
      }

      .cls-2 {
        fill: #454ced;
      }

      .cls-3 {
        fill: #fff;
      }
    </style>
  </defs>
  <g>
    <path class="cls-2" d="M708.26,799.23v-165.07H246.44c-8.63,0-15.62,7-15.62,15.62v149.45c0,45.17,36.62,81.79,81.78,81.79h4.06c.24-21.16,17.54-38.32,38.76-38.32s38.51,17.16,38.76,38.32h151.3c.24-21.16,17.54-38.32,38.76-38.32s38.51,17.16,38.76,38.32h3.48c45.16,0,81.79-36.62,81.79-81.79Z"/>
    <path class="cls-2" d="M708.66,376.26v247.05H246.84c-8.62,0-15.62-7-15.62-15.62v-331.21c0-45.16,36.63-81.78,81.79-81.78h214.58c5.21.02,10.37.24,15.47.73,92.8,8.03,165.61,85.94,165.61,180.84Z"/>
  </g>
  <g>
    <path class="cls-3" d="M558.79,508.83c-.68-3.66-2.69-6.64-5.21-9.27-2.88-3.04-6.32-5.4-10.04-7.32-5.64-2.9-11.61-5-17.66-6.82-5.42-1.62-10.92-2.95-16.51-3.81-2.35,3.56-4.74,7.18-7.14,10.81,2.29.38,4.59.75,6.86,1.17,5.84,1.06,11.64,2.25,17.31,4.07,5.13,1.63,10.15,3.55,14.74,6.4,2.01,1.25,3.85,2.71,5.16,4.72,1.08,1.69,1.33,3.5.32,5.27-.59,1.03-1.41,1.95-2.27,2.79-1.69,1.61-3.72,2.72-5.78,3.77-4.75,2.49-9.74,4.29-14.87,5.78-4.42,1.27-8.87,2.28-13.37,3.12-3.04.57-6.11,1.03-9.17,1.46-2.58.35-5.18.65-7.76.92-2.25.24-4.53.44-6.78.6-1.77.14-3.55.21-5.31.3-2.9.14-5.74.35-8.64.37-.07,0-.14,0-.21,0-3.3.05-6.6.05-9.91-.05-2.38-.06-4.75-.17-7.13-.34-2.39-.16-4.75-.24-7.14-.46-3.8-.33-7.59-.68-11.39-1.17-3.66-.47-7.32-1.04-10.96-1.71-5.1-.95-10.14-2.18-15.08-3.74-5.47-1.74-10.82-3.85-15.78-6.84-1.88-1.17-3.63-2.47-4.8-4.42-.87-1.44-1.11-2.93-.49-4.54.52-1.3,1.36-2.38,2.36-3.31,2.06-1.9,4.43-3.33,6.92-4.53,7-3.39,14.35-5.64,21.95-7.14,4.38-.89,8.78-1.63,13.16-2.44-2.39-3.57-4.83-7.2-7.24-10.85-2.01.32-3.98.7-5.95,1.11-5.86,1.22-11.61,2.85-17.23,4.91-5.07,1.84-10.03,3.88-14.57,6.81-3.52,2.28-6.56,5.04-8.83,8.57-3.8,5.86-3.69,12.45.57,18.09,2,2.63,4.45,4.77,7.13,6.65,4.81,3.36,10.12,5.72,15.63,7.68,5.97,2.11,12.07,3.72,18.25,4.9,3.8.74,7.6,1.34,11.42,1.91,2.5.37,5,.64,7.52.92,2.85.32,5.7.59,8.57.84,1.92.16,3.85.21,5.78.3,2.87.13,5.72.35,8.59.37,3.91.03,7.82-.08,11.72-.16,2.01-.03,4.02-.11,6-.21,3.36-.22,6.73-.41,10.07-.71,2.88-.24,5.72-.51,8.57-.9,4.47-.63,8.97-1.27,13.43-2.09,5.8-1.03,11.52-2.47,17.11-4.31,6.11-2.04,11.96-4.51,17.29-8.17,3.79-2.61,7.11-5.7,9.33-9.79,1.63-3.02,2.12-6.19,1.49-9.55Z"/>
    <path class="cls-3" d="M386.23,382.25c1.54,5.72,3.69,11.23,5.88,16.68,2.58,6.38,5.37,12.62,8.39,18.77,3.9,8.06,8.08,15.95,12.51,23.74,5.77,10.11,11.91,20.07,18.26,29.84.09.14.19.29.28.43,3.54,5.44,7.16,10.83,10.79,16.23,2.45,3.61,4.89,7.23,7.37,10.82,1.09,1.59,2.19,3.17,3.29,4.74,4.16,5.97,8.41,11.88,12.62,17.79.59.84,1.17,1.67,1.77,2.54.21.29.41.58.62.88.34-.32.64-.59.9-.87.09-.1.19-.21.27-.32.81-1.01,1.63-1.98,2.41-3.02,5.3-7.14,10.31-14.49,15.27-21.87.73-1.08,1.45-2.17,2.18-3.25,4.83-7.21,9.6-14.46,14.37-21.69.43-.66.87-1.33,1.31-1.99,2.2-3.35,4.41-6.71,6.54-10.14,3.49-5.67,6.91-11.39,10.36-17.09,4.45-7.41,8.74-14.89,12.67-22.59,2.61-5.08,5.07-10.25,7.41-15.47,4.42-9.9,7.92-20.13,10.11-30.79,1.28-6.05,1.91-12.15,2.12-18.34.06-1.38-.11-2.79-.11-4.2-.06-3.85-.51-7.68-1.2-11.47-1.41-8.06-4.15-15.68-8.08-22.82-4.88-8.87-11.18-16.66-18.61-23.53-6-5.5-12.64-10.11-19.97-13.73-6.48-3.19-13.18-5.47-20.13-6.86v45.85c11.8,6.31,20.32,19.09,20.32,33.74.03,20.7-17.5,38.17-39.07,37.57-19.72-.51-37.2-17.36-36.6-39.22.38-13.92,8.71-25.72,20.08-31.82v-45.66c-.63.11-1.25.24-1.88.41-6.97,1.68-13.64,4.17-20.01,7.45-4.59,2.39-8.96,5.1-13.07,8.22-4.64,3.53-8.9,7.52-12.76,11.92-4.53,5.16-8.32,10.8-11.44,16.87-2.63,5.16-4.64,10.55-6.11,16.15-1.49,5.8-2.31,11.72-2.55,17.69-.16,4.47.06,8.92.57,13.37.6,5.1,1.6,10.09,2.93,15.03Z"/>
  </g>
  <g>
    <path class="cls-1" d="M786.93,799.23v-340.62c0-101.89-57.76-190.33-142.31-234.3,45.3,35.24,74.49,90.25,74.49,151.94v422.98c0,35.37-19.94,66.19-49.18,81.79h35.21c45.17,0,81.79-36.62,81.79-81.79Z"/>
    <path class="cls-1" d="M797.78,458.62v164.69h60.33c8.63,0,15.63-7,15.63-15.63v-66.44c0-143.02-86.67-265.83-210.35-318.75,80.41,47.96,134.39,135.86,134.39,236.12Z"/>
    <path class="cls-1" d="M882.07,669.43h-8.33v-19.64c0-8.63-7-15.63-15.63-15.63h-60.33v165.07c0,35.37-19.94,66.19-49.18,81.79h43.35c45.17,0,81.79-36.62,81.79-81.79v-5.02h8.33c4.39,0,7.95-3.55,7.95-7.95v-108.89c0-4.39-3.55-7.95-7.95-7.95Z"/>
    <path class="cls-1" d="M355.42,852.98c-15.58,0-28.25,12.52-28.48,28.05,0,.15,0,.29,0,.44,0,15.73,12.76,28.48,28.48,28.48s28.48-12.76,28.48-28.48c0-.15,0-.29,0-.44-.22-15.52-12.9-28.05-28.48-28.05Z"/>
    <path class="cls-1" d="M584.23,852.98c-15.58,0-28.25,12.52-28.48,28.05,0,.15,0,.29,0,.44,0,15.73,12.76,28.48,28.48,28.48s28.48-12.76,28.48-28.48c0-.15,0-.29,0-.44-.22-15.52-12.9-28.05-28.48-28.05Z"/>
  </g>
</svg>