<?xml version="1.0" encoding="UTF-8"?>
<svg id="Layer_1" data-name="Layer 1" xmlns="http://www.w3.org/2000/svg" viewBox="0 0 1080 1080">
  <defs>
    <style>
      .cls-1 {
        fill: #15213f;
      }

      .cls-1, .cls-2, .cls-3 {
        stroke-width: 0px;
      }

      .cls-2 {
        fill: #454ced;
      }

      .cls-3 {
        fill: #fff;
      }
    </style>
  </defs>
  <g>
    <path class="cls-2" d="M269.7,622.47v-55.14H115.45c-2.88,0-5.22,2.34-5.22,5.22v49.92c0,15.09,12.23,27.32,27.32,27.32h1.36c.08-7.07,5.86-12.8,12.95-12.8s12.86,5.73,12.95,12.8h50.53c.08-7.07,5.86-12.8,12.95-12.8s12.86,5.73,12.95,12.8h1.16c15.09,0,27.32-12.23,27.32-27.32Z"/>
    <path class="cls-2" d="M269.84,481.19v82.52H115.58c-2.88,0-5.22-2.34-5.22-5.22v-110.63c0-15.09,12.23-27.32,27.32-27.32h71.67c1.74,0,3.46.08,5.17.24,31,2.68,55.32,28.7,55.32,60.4Z"/>
  </g>
  <g>
    <path class="cls-3" d="M219.78,525.47c-.23-1.22-.9-2.22-1.74-3.1-.96-1.01-2.11-1.8-3.35-2.45-1.88-.97-3.88-1.67-5.9-2.28-1.81-.54-3.65-.99-5.52-1.27-.79,1.19-1.58,2.4-2.39,3.61.76.13,1.53.25,2.29.39,1.95.35,3.89.75,5.78,1.36,1.71.54,3.39,1.19,4.92,2.14.67.42,1.29.9,1.72,1.58.36.56.44,1.17.11,1.76-.2.34-.47.65-.76.93-.56.54-1.24.91-1.93,1.26-1.59.83-3.25,1.43-4.97,1.93-1.48.42-2.96.76-4.47,1.04-1.01.19-2.04.34-3.06.49-.86.12-1.73.22-2.59.31-.75.08-1.51.15-2.26.2-.59.05-1.19.07-1.77.1-.97.05-1.92.12-2.89.12-.02,0-.05,0-.07,0-1.1.02-2.21.02-3.31-.02-.8-.02-1.59-.06-2.38-.11-.8-.05-1.59-.08-2.38-.15-1.27-.11-2.54-.23-3.81-.39-1.22-.16-2.45-.35-3.66-.57-1.7-.32-3.39-.73-5.04-1.25-1.83-.58-3.62-1.29-5.27-2.28-.63-.39-1.21-.82-1.6-1.48-.29-.48-.37-.98-.17-1.52.17-.43.46-.8.79-1.1.69-.63,1.48-1.11,2.31-1.51,2.34-1.13,4.79-1.88,7.33-2.38,1.46-.3,2.93-.55,4.4-.81-.8-1.19-1.61-2.41-2.42-3.62-.67.11-1.33.23-1.99.37-1.96.41-3.88.95-5.76,1.64-1.69.61-3.35,1.29-4.87,2.27-1.18.76-2.19,1.68-2.95,2.86-1.27,1.96-1.23,4.16.19,6.04.67.88,1.48,1.59,2.38,2.22,1.61,1.12,3.38,1.91,5.22,2.56,1.99.7,4.03,1.24,6.1,1.64,1.27.25,2.54.45,3.82.64.84.12,1.67.22,2.51.31.95.11,1.9.2,2.86.28.64.05,1.29.07,1.93.1.96.04,1.91.12,2.87.12,1.31,0,2.61-.03,3.91-.05.67,0,1.34-.04,2-.07,1.12-.07,2.25-.14,3.36-.24.96-.08,1.91-.17,2.86-.3,1.49-.21,3-.42,4.49-.7,1.94-.34,3.85-.82,5.71-1.44,2.04-.68,4-1.51,5.77-2.73,1.27-.87,2.37-1.9,3.12-3.27.54-1.01.71-2.07.5-3.19Z"/>
    <path class="cls-3" d="M162.14,483.2c.51,1.91,1.23,3.75,1.97,5.57.86,2.13,1.79,4.21,2.8,6.27,1.3,2.69,2.7,5.33,4.18,7.93,1.93,3.38,3.98,6.7,6.1,9.97.03.05.06.1.09.14,1.18,1.82,2.39,3.62,3.6,5.42.82,1.21,1.63,2.41,2.46,3.62.36.53.73,1.06,1.1,1.58,1.39,1.99,2.81,3.97,4.21,5.94.2.28.39.56.59.85.07.1.14.19.21.29.11-.11.21-.2.3-.29.03-.03.06-.07.09-.11.27-.34.54-.66.8-1.01,1.77-2.39,3.44-4.84,5.1-7.31.24-.36.48-.72.73-1.09,1.61-2.41,3.21-4.83,4.8-7.25.14-.22.29-.44.44-.66.74-1.12,1.47-2.24,2.18-3.39,1.17-1.89,2.31-3.81,3.46-5.71,1.49-2.47,2.92-4.97,4.23-7.55.87-1.7,1.69-3.43,2.47-5.17,1.48-3.31,2.65-6.72,3.38-10.28.43-2.02.64-4.06.71-6.13.02-.46-.04-.93-.04-1.4-.02-1.29-.17-2.56-.4-3.83-.47-2.69-1.39-5.24-2.7-7.62-1.63-2.96-3.73-5.57-6.22-7.86-2-1.84-4.22-3.38-6.67-4.59-2.16-1.07-4.4-1.83-6.72-2.29v15.31c3.94,2.11,6.79,6.38,6.79,11.27,0,6.91-5.85,12.75-13.05,12.55-6.59-.17-12.42-5.8-12.23-13.1.13-4.65,2.91-8.59,6.71-10.63v-15.25c-.21.04-.42.08-.63.14-2.33.56-4.56,1.39-6.68,2.49-1.53.8-2.99,1.7-4.37,2.75-1.55,1.18-2.97,2.51-4.26,3.98-1.51,1.72-2.78,3.61-3.82,5.63-.88,1.72-1.55,3.52-2.04,5.39-.5,1.94-.77,3.91-.85,5.91-.05,1.49.02,2.98.19,4.47.2,1.7.53,3.37.98,5.02Z"/>
  </g>
  <g>
    <path class="cls-1" d="M295.98,622.47v-113.77c0-34.03-19.29-63.57-47.53-78.26,15.13,11.77,24.88,30.15,24.88,50.75v141.28c0,11.82-6.66,22.11-16.43,27.32h11.76c15.09,0,27.32-12.23,27.32-27.32Z"/>
    <path class="cls-1" d="M299.61,508.7v55.01h20.15c2.88,0,5.22-2.34,5.22-5.22v-22.19c0-47.77-28.95-88.79-70.26-106.47,26.86,16.02,44.89,45.38,44.89,78.87Z"/>
    <path class="cls-1" d="M327.76,579.12h-2.78v-6.56c0-2.88-2.34-5.22-5.22-5.22h-20.15v55.14c0,11.82-6.66,22.11-16.43,27.32h14.48c15.09,0,27.32-12.23,27.32-27.32v-1.68h2.78c1.47,0,2.65-1.19,2.65-2.65v-36.37c0-1.47-1.19-2.65-2.65-2.65Z"/>
    <path class="cls-1" d="M151.85,640.42c-5.2,0-9.44,4.18-9.51,9.37,0,.05,0,.1,0,.15,0,5.25,4.26,9.51,9.51,9.51s9.51-4.26,9.51-9.51c0-.05,0-.1,0-.15-.07-5.18-4.31-9.37-9.51-9.37Z"/>
    <path class="cls-1" d="M228.28,640.42c-5.2,0-9.44,4.18-9.51,9.37,0,.05,0,.1,0,.15,0,5.25,4.26,9.51,9.51,9.51s9.51-4.26,9.51-9.51c0-.05,0-.1,0-.15-.07-5.18-4.31-9.37-9.51-9.37Z"/>
  </g>
  <g>
    <path class="cls-1" d="M398.74,649.35c-6.52,0-12.69-1.42-18.52-4.26-5.83-2.84-9.97-6.86-12.42-12.08l7.48-6.21c1.69,3.83,4.89,6.98,9.6,9.43,4.72,2.45,9.37,3.68,13.97,3.68,5.29,0,10.01-1.15,14.15-3.45,4.14-2.3,6.21-5.48,6.21-9.55,0-3.07-1.25-5.52-3.74-7.36-2.49-1.84-5.92-3.41-10.29-4.71l-17.94-5.29c-5.22-1.61-9.41-4.1-12.59-7.48-3.18-3.37-4.77-7.59-4.77-12.65,0-6.82,2.93-12.38,8.8-16.68,5.87-4.29,12.59-6.44,20.18-6.44,5.83,0,11.29,1.05,16.39,3.16,5.1,2.11,9.14,5.31,12.13,9.6l-7.82,6.21c-2.07-3.07-5-5.42-8.8-7.07-3.8-1.65-7.73-2.47-11.79-2.47-4.29,0-8.36,1.19-12.19,3.57-3.83,2.38-5.75,5.6-5.75,9.66,0,5.45,3.83,9.24,11.5,11.39l18.52,5.52c12.88,3.83,19.32,10.43,19.32,19.78,0,6.9-3.12,12.58-9.37,17.02-6.25,4.45-13.67,6.67-22.25,6.67Z"/>
    <path class="cls-1" d="M472.46,648.2v-71.08h-23.12v-9.89h56.7v9.89h-23v71.08h-10.58Z"/>
    <path class="cls-1" d="M593.45,637.22c-8.13,8.17-17.94,12.25-29.44,12.25s-21.32-4.08-29.44-12.25c-8.13-8.17-12.19-18-12.19-29.5s4.06-21.32,12.19-29.44,17.94-12.19,29.44-12.19,21.32,4.07,29.44,12.19c8.13,8.13,12.19,17.94,12.19,29.44s-4.06,21.33-12.19,29.5ZM542.33,629.92c6.02,6.13,13.25,9.2,21.68,9.2s15.66-3.07,21.68-9.2c6.02-6.13,9.03-13.53,9.03-22.2s-3.01-16.08-9.03-22.26c-6.02-6.17-13.25-9.26-21.68-9.26s-15.66,3.09-21.68,9.26c-6.02,6.17-9.03,13.59-9.03,22.26s3.01,16.06,9.03,22.2Z"/>
    <path class="cls-1" d="M634.63,648.2v-80.97h31.28c6.67,0,12.36,2.36,17.08,7.07s7.07,10.45,7.07,17.19c0,5.06-1.48,9.57-4.43,13.51-2.95,3.95-6.73,6.61-11.33,7.99l24.73,35.19h-12.77l-23.12-33.12h-18.06v33.12h-10.47ZM645.09,605.65h20.13c3.99,0,7.36-1.38,10.12-4.14s4.14-6.1,4.14-10.01-1.38-7.36-4.14-10.12-6.13-4.14-10.12-4.14h-20.13v28.41Z"/>
    <path class="cls-1" d="M716.28,648.2l37.72-82.92h1.5l37.84,82.92h-11.5l-6.79-15.64h-40.6l-6.79,15.64h-11.39ZM738.71,622.9h31.97l-15.99-36.23-15.99,36.23Z"/>
    <path class="cls-1" d="M851.54,649.47c-11.43,0-21.22-4.08-29.39-12.25s-12.25-18-12.25-29.5,4.06-21.32,12.19-29.44c8.13-8.13,17.94-12.19,29.44-12.19,7.44,0,14.38,1.86,20.82,5.58,6.44,3.72,11.54,8.8,15.3,15.24l-9.55,5.18c-2.68-4.83-6.38-8.68-11.1-11.56s-9.87-4.31-15.47-4.31c-8.51,0-15.76,3.07-21.74,9.2-5.98,6.14-8.97,13.57-8.97,22.31s2.97,16.31,8.91,22.48c5.94,6.17,13.21,9.26,21.79,9.26,7.9,0,14.68-2.53,20.36-7.59,5.67-5.06,8.86-11.39,9.55-18.98h-29.9v-7.59h41.17v2.88c-.15,11.43-4.22,21.16-12.19,29.21s-17.64,12.08-28.98,12.08Z"/>
    <path class="cls-1" d="M920.08,648.2v-80.97h49.69v9.89h-39.1v24.73h35.77v8.17h-35.77v28.29h39.1v9.89h-49.69Z"/>
  </g>
  <g>
    <path class="cls-2" d="M422.86,428.94c19,0,35.29,7.74,45.47,20.9l-16.97,14.79c-6.11-7.74-17.1-13.71-27.55-13.71-20.22,0-30.4,14.25-30.4,28.64s10.18,28.5,30.4,28.5c13.3,0,21.72-6.51,27.55-13.98l16.97,14.79c-10.45,12.89-26.74,21.31-45.6,21.31-24.43,0-53.07-17.24-53.07-50.63s28.77-50.63,53.21-50.63Z"/>
    <path class="cls-2" d="M569.04,432.06v19.14h-84.83v-19.14h84.83ZM569.04,470.07v19h-84.83v-19h84.83ZM569.04,507.93v19.14h-84.42v-19.14h84.42Z"/>
    <path class="cls-2" d="M588.85,432.06h22.94l58.36,66.23v-66.23h22.8v95.01h-22.8l-58.36-66.23v66.23h-22.94v-95.01Z"/>
    <path class="cls-2" d="M713.3,432.06h22.94v95.01h-22.94v-95.01Z"/>
    <path class="cls-2" d="M856.08,432.06v19h-41.53v76.01h-22.94v-76.14h-41.53v-18.87h106Z"/>
    <path class="cls-2" d="M869.92,432.06h22.94v37.87h52.39v-37.87h22.8v95.01h-22.8v-38h-52.39v38h-22.94v-95.01Z"/>
  </g>
</svg>